Coordinates
version=1
nRows=27
nColumns=26
inDegrees=yes

Units are S.I. units (second, meters, Newtons, ...)
Angles are in degrees.

endheader
time	pelvis_tilt	pelvis_list	pelvis_rotation	pelvis_tx	pelvis_ty	pelvis_tz	hip_flexion_r	hip_adduction_r	hip_rotation_r	knee_angle_r	knee_angle_r_beta	ankle_angle_r	subtalar_angle_r	mtp_angle_r	hip_flexion_l	hip_adduction_l	hip_rotation_l	knee_angle_l	knee_angle_l_beta	ankle_angle_l	subtalar_angle_l	mtp_angle_l	lumbar_extension	lumbar_bending	lumbar_rotation
      1.22000000	    -11.86343073	     -0.27310576	      3.78817102	      0.48213191	      0.95582725	      0.35761008	     35.46555285	      0.71109924	     -7.18880633	     13.44193206	      0.23460597	     13.70372416	      0.00000000	      0.00000000	     -7.63330621	     -4.32588387	      3.92611663	     75.19618676	      1.31242104	    -11.17222441	      0.00000000	      0.00000000	      1.70162026	      2.10030723	    -23.92637387
      1.22400000	    -11.28031754	     -0.66741523	      3.51448699	      0.49726585	      0.95327124	      0.35774840	     34.74506838	      1.30737160	     -6.79601025	     14.83257511	      0.25887727	     12.86742270	      0.00000000	      0.00000000	     -7.33000491	     -5.00775592	      3.52777354	     77.72076256	      1.35648320	    -10.52282469	      0.00000000	      0.00000000	      0.85322751	      2.75145613	    -23.32757814
      1.22800000	    -10.84296145	     -1.06242215	      3.22343702	      0.51235695	      0.95025992	      0.35797923	     34.18596319	      1.89449327	     -6.53405108	     16.19841390	      0.28271566	     11.92750635	      0.00000000	      0.00000000	     -6.85915253	     -5.70641688	      3.14671803	     80.27475596	      1.40105880	     -9.61311278	      0.00000000	      0.00000000	      0.16931108	      3.35890442	    -22.65139374
      1.23200000	    -10.40131855	     -1.41085366	      2.96291098	      0.52750112	      0.94713919	      0.35808682	     33.64096814	      2.40914735	     -6.20153517	     17.65768999	      0.30818483	     10.73265103	      0.00000000	      0.00000000	     -6.38534299	     -6.34152005	      2.84129466	     82.74191865	      1.44411891	     -8.72994105	      0.00000000	      0.00000000	     -0.50176800	      3.91602287	    -21.98963039
      1.23600000	    -10.04307392	     -1.76049952	      2.71604035	      0.54249186	      0.94373616	      0.35817519	     33.23145464	      2.88683806	     -6.00932349	     19.20280785	      0.33515222	      9.34735172	      0.00000000	      0.00000000	     -5.78815655	     -6.97268348	      2.59136853	     85.24079823	      1.48773259	     -7.70345335	      0.00000000	      0.00000000	     -1.10473107	      4.46519473	    -21.28497709
      1.24000000	     -9.81496728	     -2.09215138	      2.49918173	      0.55732562	      0.94005145	      0.35838230	     33.02380344	      3.32812346	     -5.95866157	     20.86163111	      0.36410415	      7.95961725	      0.00000000	      0.00000000	     -4.99059833	     -7.59622967	      2.41891619	     87.71875924	      1.53098116	     -6.50504634	      0.00000000	      0.00000000	     -1.56411828	      4.94203136	    -20.61972585
      1.24400000	     -9.55219334	     -2.38141745	      2.23575859	      0.57201626	      0.93634820	      0.35861933	     32.84046251	      3.77060432	     -5.71149668	     22.68813456	      0.39598265	      7.13436088	      0.00000000	      0.00000000	     -4.21450570	     -8.18622729	      2.22672208	     90.14762087	      1.57337280	     -5.52076498	      0.00000000	      0.00000000	     -2.10896191	      5.36853781	    -19.84292924
      1.24800000	     -9.62478265	     -2.54350577	      1.92462295	      0.58642612	      0.93210076	      0.35880063	     33.23133955	      4.04937347	     -5.55186210	     25.03534181	      0.43694914	      8.15531796	      0.00000000	      0.00000000	     -3.00383494	     -8.52969115	      2.12398029	     92.67130350	      1.61741937	     -4.15771918	      0.00000000	      0.00000000	     -2.27714697	      5.66202857	    -19.04149601
      1.25200000	     -9.59280736	     -2.89148247	      1.59552400	      0.60047741	      0.92813193	      0.35912804	     33.54658103	      4.58840685	     -5.38831174	     27.53900327	      0.48064628	      9.64705598	      0.00000000	      0.00000000	     -1.85668999	     -9.18180016	      1.97731454	     95.09891154	      1.65978912	     -3.15337225	      0.00000000	      0.00000000	     -2.62920658	      6.14178596	    -18.19453140
      1.25600000	     -9.65709860	     -3.07973017	      1.20436006	      0.61427411	      0.92414060	      0.35942846	     33.94812546	      5.02736081	     -5.08206849	     30.01168215	      0.52380267	     11.19759407	      0.00000000	      0.00000000	     -0.56075593	     -9.53311152	      1.95974883	     97.50158526	      1.70172369	     -2.10068681	      0.00000000	      0.00000000	     -2.91709362	      6.42273526	    -17.23643467
      1.26000000	     -9.82051508	     -3.18972801	      0.85841227	      0.62812231	      0.92003961	      0.35968729	     34.38675702	      5.34775784	     -4.78621804	     32.37228751	      0.56500300	     12.75834340	      0.00000000	      0.00000000	      0.89788547	     -9.83995852	      1.91916217	     99.84124993	      1.74255854	     -0.95560942	      0.00000000	      0.00000000	     -3.04607593	      6.61836742	    -16.34171350
      1.26400000	     -9.88816214	     -3.34141287	      0.55491976	      0.64188933	      0.91625165	      0.36002886	     34.70324254	      5.72791056	     -4.41797405	     34.71902357	      0.60596127	     14.44086986	      0.00000000	      0.00000000	      2.30464442	    -10.20571476	      1.95856106	    102.07020899	      1.78146122	      0.05362226	      0.00000000	      0.00000000	     -3.32050732	      6.83883426	    -15.53999953
      1.26800000	     -9.87760471	     -3.59202883	      0.22483395	      0.65580894	      0.91273321	      0.36054671	     34.82207392	      6.26036067	     -4.06250848	     36.84804862	      0.64311977	     15.70614722	      0.00000000	      0.00000000	      3.61897177	    -10.76270281	      1.97453561	    104.14458758	      1.81766595	      0.83645643	      0.00000000	      0.00000000	     -3.68538936	      7.13821367	    -14.55654604
      1.27200000	     -9.99762936	     -3.71101158	     -0.09090370	      0.66981742	      0.90909870	      0.36098724	     34.99406067	      6.68776338	     -3.48422565	     38.92859256	      0.67943211	     17.49533795	      0.00000000	      0.00000000	      5.13959379	    -11.12725161	      2.03769477	    106.14661681	      1.85260795	      1.84593646	      0.00000000	      0.00000000	     -3.85727641	      7.27786256	    -13.68182798
      1.27600000	    -10.24758939	     -3.70202144	     -0.25097795	      0.68362497	      0.90549361	      0.36113024	     35.11068167	      6.82714661	     -3.15572529	     40.64220750	      0.70934034	     19.47429724	      0.00000000	      0.00000000	      6.89321864	    -11.22347753	      2.35141220	    108.09434414	      1.88660221	      2.83801486	      0.00000000	      0.00000000	     -3.87221885	      7.28803287	    -12.94210790
      1.28000000	    -10.34955857	     -3.74356932	     -0.48771011	      0.69776893	      0.90231436	      0.36130648	     34.92655738	      7.04538117	     -2.81583650	     42.12800311	      0.73527236	     20.96931583	      0.00000000	      0.00000000	      8.45517147	    -11.46901509	      2.48878167	    109.83325294	      1.91695189	      3.69416325	      0.00000000	      0.00000000	     -4.04348766	      7.35049746	    -12.13149168
      1.28400000	    -10.34784924	     -3.92814640	     -0.60110794	      0.71173376	      0.89978201	      0.36156751	     34.44486212	      7.36738702	     -2.60955980	     43.21021982	      0.75416061	     21.87086007	      0.00000000	      0.00000000	     10.01386317	    -11.81756624	      2.86250898	    111.43889713	      1.94497567	      4.25173016	      0.00000000	      0.00000000	     -4.37914860	      7.54429924	    -11.42121261
      1.28800000	    -10.73735778	     -3.97607247	     -0.67935405	      0.72606656	      0.89699849	      0.36170012	     34.32297985	      7.47715911	     -2.51003432	     44.24036390	      0.77214001	     23.43301610	      0.00000000	      0.00000000	     12.03950602	    -12.08662086	      3.11755473	    112.90733442	      1.97060474	      5.21638235	      0.00000000	      0.00000000	     -4.14066492	      7.57822137	    -10.87693520
      1.29200000	    -11.12141678	     -3.99805433	     -0.73071993	      0.74044275	      0.89475688	      0.36178361	     34.01062706	      7.55687463	     -2.36231258	     44.89971989	      0.78364795	     24.49162334	      0.00000000	      0.00000000	     14.09292043	    -12.20079193	      3.48531454	    114.20885433	      1.99332054	      5.92677951	      0.00000000	      0.00000000	     -3.92818955	      7.59344826	    -10.24805654
      1.29600000	    -11.45475727	     -3.99520537	     -0.80403197	      0.75496387	      0.89297162	      0.36193819	     33.53354623	      7.63943494	     -2.24301839	     45.36268641	      0.79172824	     25.42994344	      0.00000000	      0.00000000	     16.06634445	    -12.28622768	      3.79243955	    115.28266236	      2.01206203	      6.48678688	      0.00000000	      0.00000000	     -3.76746222	      7.55359335	     -9.71143528
      1.30000000	    -11.35447730	     -3.89389386	     -0.78937343	      0.76966451	      0.89222891	      0.36190646	     32.44040473	      7.55968542	     -2.16940094	     45.54048117	      0.79483134	     25.66269944	      0.00000000	      0.00000000	     17.57115983	    -12.27576727	      3.96953952	    116.09141771	      2.02617747	      6.64515853	      0.00000000	      0.00000000	     -4.07857977	      7.38545932	     -9.07759892
      1.30400000	    -11.91679856	     -3.86982321	     -0.83222431	      0.78418222	      0.89072698	      0.36191314	     32.07184799	      7.66372076	     -1.88280067	     45.71244733	      0.79783272	     26.83543658	      0.00000000	      0.00000000	     19.89349522	    -12.19112965	      4.34357579	    116.95804843	      2.04130303	      7.67790438	      0.00000000	      0.00000000	     -3.60954087	      7.33252451	     -8.56146958
      1.30800000	    -12.04005716	     -3.83535429	     -0.69272188	      0.79913782	      0.89017994	      0.36162352	     31.08811297	      7.58643438	     -1.89037118	     45.64754605	      0.79669997	     27.32791883	      0.00000000	      0.00000000	     21.70821979	    -12.09504233	      4.66866541	    117.53960736	      2.05145315	      8.26376021	      0.00000000	      0.00000000	     -3.54797681	      7.23593959	     -8.02570757
      1.31200000	    -12.01529563	     -3.70135776	     -0.75508894	      0.81391863	      0.89018767	      0.36172688	     29.92945237	      7.51950856	     -1.72390877	     45.54691949	      0.79494371	     27.57157657	      0.00000000	      0.00000000	     23.29499590	    -11.93581838	      4.76107490	    117.97297376	      2.05901682	      8.51696538	      0.00000000	      0.00000000	     -3.70315858	      6.98498796	     -7.27131074
      1.31600000	    -12.33740522	     -3.69409082	     -0.62128998	      0.82866380	      0.88996292	      0.36148936	     29.01791493	      7.54352124	     -1.60696787	     45.09592203	      0.78707232	     27.97694732	      0.00000000	      0.00000000	     25.38349746	    -11.78232575	      5.05875191	    118.27425805	      2.06427522	      9.26422669	      0.00000000	      0.00000000	     -3.40169509	      6.88651631	     -6.74959545
      1.32000000	    -12.29136818	     -3.52571837	     -0.71144548	      0.84410014	      0.89065625	      0.36157231	     27.64990362	      7.44904035	     -1.44263351	     44.62870017	      0.77891776	     28.18588973	      0.00000000	      0.00000000	     26.84334879	    -11.58645311	      4.89424560	    118.28649414	      2.06448878	      9.57583064	      0.00000000	      0.00000000	     -3.44624393	      6.58411554	     -5.96111093
      1.32400000	    -12.30594401	     -3.41118201	     -0.74754849	      0.85945057	      0.89145242	      0.36153591	     26.29474019	      7.38809525	     -1.30554710	     44.01988484	      0.76829193	     28.34771538	      0.00000000	      0.00000000	     28.37693630	    -11.38989988	      4.83396916	    118.19927557	      2.06296653	     10.00007631	      0.00000000	      0.00000000	     -3.41290691	      6.33346903	     -5.20076791
